<svg width="1404" height="1872" viewBox="0 0 1404 1872" xmlns="http://www.w3.org/2000/svg" xmlns:xlink="http://www.w3.org/1999/xlink"  version="1.2" baseProfile="tiny"><title>Quick sheets</title>
<g><path fill="#000000" d="M483.737 1064.75 C483.737 1064.75 483.737 1064.75 483.737 1064.75 C486.958 1063.9 490.28 1063.38 493.399 1062.22 C496.216 1061.17 498.696 1059.36 501.444 1058.14 C501.964 1057.91 502.735 1058.31 503.133 1057.9 C504.783 1056.22 506.051 1054.19 507.287 1052.19 C508.417 1050.35 509.481 1048.45 510.21 1046.42 C511.437 1043.02 512.286 1039.48 513.13 1035.96 C513.815 1033.11 513.84 1030.09 514.792 1027.31 C514.939 1026.88 515.378 1028.03 515.775 1028.25 C516.945 1028.89 518.155 1029.51 519.442 1029.87 C520.122 1030.06 520.873 1030.03 521.56 1029.87 C523.234 1029.47 524.882 1028.92 526.448 1028.21 C530.434 1026.39 534.412 1024.52 538.184 1022.29 C539.239 1021.66 539.853 1020.48 540.81 1019.71 C541.525 1019.14 542.522 1018.96 543.166 1018.31 C544.379 1017.08 545.413 1015.67 546.288 1014.18 C548.32 1010.74 550.598 1007.35 551.862 1003.55 C552.506 1001.62 552.341 999.423 551.866 997.441 C551.248 994.864 549.518 992.674 548.653 990.169 C547.562 987.009 546.537 983.796 546.014 980.493 C545.65 978.192 545.812 975.825 546.015 973.503 C546.077 972.789 546.761 972.216 546.799 971.5 C546.821 971.1 546.07 970.857 546.177 970.471 C546.579 969.025 547.674 967.853 548.202 966.447 C548.994 964.337 549.789 962.194 550.121 959.965 C551.725 949.185 552.915 938.345 553.999 927.5 C554.167 925.82 554.079 924.113 553.871 922.437 C553.083 916.1 551.741 909.838 551.014 903.493 C550.787 901.511 550.891 899.499 551.014 897.507 C551.549 888.827 552.568 880.179 552.986 871.493 C553.226 866.503 553.434 861.482 552.986 856.507 C552.162 847.345 550.868 838.216 549.178 829.173 C547.873 822.189 545.274 815.486 544.014 808.493 C543.542 805.873 543.753 803.156 544.014 800.507 C544.74 793.14 546.379 785.876 546.97 778.497 C547.054 777.451 546.186 776.532 546.016 775.496 C545.907 774.83 545.989 774.13 546.148 773.474 C546.316 772.778 546.885 772.205 546.985 771.496 C547.17 770.178 547.141 768.825 546.985 767.503 C546.913 766.895 545.717 765.944 546.311 765.794 C553.148 764.07 560.297 763.883 567.193 762.406 C573.236 761.112 579.073 758.987 585.07 757.494 C590.989 756.019 597.019 755.014 602.93 753.506 C606.401 752.621 609.963 751.865 613.194 750.318 C616.451 748.759 619.357 746.523 622.19 744.285 C624.075 742.796 625.911 741.16 627.285 739.19 C629.834 735.536 632.798 731.88 633.862 727.554 C635.066 722.662 634.623 717.422 633.866 712.441 C633.395 709.346 631.692 706.55 630.247 703.773 C628.402 700.228 626.564 696.611 624.023 693.528 C621.822 690.857 618.959 688.79 616.19 686.715 C612.894 684.246 609.131 682.437 605.866 679.926 C604.762 679.077 604.216 677.658 603.19 676.715 C602.416 676.004 601.32 675.714 600.528 675.023 C598.815 673.528 597.143 671.959 595.715 670.19 C594.379 668.535 593.561 666.511 592.285 664.81 C591.551 663.831 590.467 663.155 589.715 662.19 C588.095 660.114 587.052 657.577 585.19 655.715 C583.686 654.211 581.541 653.521 579.81 652.285 C579.196 651.847 578.827 651.106 578.184 650.712 C571.851 646.828 565.444 643.059 558.932 639.484 C557.298 638.587 555.452 638.136 553.78 637.313 C552.18 636.524 550.795 635.304 549.133 634.656 C546.31 633.557 543.286 633.059 540.411 632.103 C539.749 631.883 539.251 631.17 538.553 631.138 C532.189 630.843 525.766 630.379 519.439 631.132 C515.729 631.574 512.229 633.185 508.805 634.682 C505.659 636.057 502.696 637.842 499.816 639.712 C497.018 641.528 494.367 643.573 491.81 645.715 C490.149 647.106 488.835 648.875 487.19 650.285 C486.487 650.887 485.495 651.092 484.81 651.715 C481.987 654.282 479.127 656.853 476.715 659.81 C474.662 662.326 473.095 665.21 471.494 668.035 C470.08 670.53 468.831 673.119 467.682 675.746 C466.604 678.21 465.585 680.711 464.821 683.29 C464.025 685.979 463.201 688.708 463.014 691.507 C462.635 697.179 462.466 702.915 463.131 708.561 C463.683 713.246 465.257 717.76 466.637 722.27 C468.339 727.836 470.874 733.139 472.37 738.763 C475.797 751.64 478.598 764.678 481.389 777.707 C482.514 782.959 483.461 788.258 484.114 793.589 C485.004 800.858 484.976 808.227 486.016 815.476 C486.936 821.89 489.002 828.102 489.986 834.506 C490.293 836.502 490.142 838.562 489.87 840.562 C489.183 845.63 488.394 850.703 487.116 855.655 C486.523 857.949 485.458 860.115 484.292 862.178 C483.399 863.757 482.212 865.165 480.984 866.5 C480.198 867.356 479.334 868.201 478.289 868.71 C478.008 868.848 477.79 868.088 477.497 868.202 C476.703 868.512 476.309 869.53 475.501 869.799 C475.132 869.922 474.854 869.041 474.499 869.201 C473.553 869.625 473.023 870.668 472.19 871.285 C471.367 871.894 470.551 872.628 469.554 872.862 C468.218 873.176 466.791 873.098 465.438 872.869 C461.856 872.265 458.253 871.59 454.829 870.376 C449.429 868.46 444.227 866.009 439.068 863.516 C435.879 861.975 432.82 860.166 429.816 858.288 C429.175 857.887 428.796 857.156 428.184 856.712 C427.501 856.216 426.725 855.859 425.965 855.494 C420.34 852.791 414.623 850.28 409.032 847.508 C404.706 845.364 400.61 842.76 396.22 840.749 C393.767 839.625 391.207 838.66 388.561 838.132 C386.581 837.737 384.513 837.798 382.507 838.014 C379.133 838.377 375.889 839.847 372.497 839.861 C366.117 839.887 359.815 838.111 353.436 838.133 C349.166 838.148 344.93 839.054 340.76 839.97 C338.015 840.574 335.347 841.547 332.773 842.675 C328.683 844.467 324.594 846.332 320.816 848.712 C318.294 850.3 316.197 852.485 314 854.5 C312.16 856.188 310.358 857.929 308.715 859.81 C308.106 860.507 307.9 861.498 307.285 862.19 C305.22 864.514 302.649 866.375 300.715 868.81 C298.695 871.353 297.009 874.163 295.494 877.035 C293.321 881.156 291.347 885.394 289.675 889.742 C288.109 893.814 286.982 898.043 285.8 902.241 C284.211 907.886 283.048 913.647 281.366 919.265 C279.551 925.326 277.651 931.375 275.318 937.255 C273.949 940.704 272.5 944.205 270.288 947.184 C267.73 950.63 264.577 953.661 261.184 956.288 C258.932 958.032 256.257 959.235 253.556 960.141 C249.669 961.445 245.634 962.389 241.562 962.869 C237.88 963.304 234.075 963.593 230.439 962.867 C226.338 962.049 222.579 959.994 218.747 958.319 C216.03 957.131 213.33 955.861 210.816 954.288 C209.775 953.637 209.183 952.425 208.184 951.711 C206.829 950.744 205.118 950.327 203.816 949.289 C201.859 947.727 200.192 945.829 198.499 943.984 C198.216 943.676 198.223 943.162 197.926 942.866 C196.365 941.308 194.49 940.078 192.977 938.472 C192.219 937.667 191.948 936.474 191.166 935.692 C190.43 934.956 189.339 934.675 188.528 934.023 C187.45 933.156 186.734 931.834 185.527 931.158 C185.078 930.906 184.471 931.248 184.02 931.497 C183.638 931.708 183.344 932.084 183.149 932.474 C182.994 932.783 183.016 933.157 183.015 933.503 C183.01 937.523 182.595 941.577 183.132 945.56 C183.49 948.207 184.591 950.717 185.668 953.161 C186.726 955.562 188.374 957.666 189.508 960.032 C192.058 965.348 194.16 970.872 196.714 976.186 C197.235 977.271 197.93 978.278 198.715 979.19 C200.04 980.728 201.508 982.142 203.015 983.5 C203.327 983.781 203.837 983.778 204.134 984.074 C205.122 985.059 205.726 986.417 206.816 987.289 C208.117 988.328 209.81 988.771 211.184 989.711 C212.044 990.3 212.484 991.511 213.473 991.842 C214.142 992.066 214.778 991.267 215.474 991.148 C216.148 991.033 216.912 990.847 217.526 991.149 C219.738 992.237 221.381 994.398 223.712 995.2 C227.161 996.385 230.883 996.576 234.507 996.986 C236.158 997.173 237.84 997.157 239.493 996.986 C253.85 995.499 268.125 993.234 282.507 992.014 C287.163 991.619 291.887 991.582 296.526 992.148 C297.553 992.274 298.408 993.175 298.995 994.027 C299.903 995.342 300.687 996.852 300.867 998.44 C301.36 1002.76 301.212 1007.15 300.985 1011.5 C300.93 1012.54 299.929 1013.45 300.03 1014.5 C300.434 1018.67 301.464 1022.76 302.469 1026.83 C302.783 1028.11 303.185 1029.42 303.972 1030.47 C305.342 1032.29 307.091 1033.81 308.823 1035.29 C309.386 1035.77 310.108 1036.04 310.798 1036.31 C312.432 1036.96 314.041 1037.77 315.778 1038.03 C324.257 1039.28 332.83 1039.77 341.339 1040.8 C343.408 1041.05 345.419 1041.95 347.502 1041.86 C351.067 1041.71 354.575 1040.86 358.061 1040.1 C360.416 1039.59 362.809 1039.07 364.992 1038.04 C366.56 1037.31 368.103 1036.3 369.143 1034.92 C370.794 1032.72 372.017 1030.17 372.866 1027.56 C373.29 1026.25 373.115 1024.79 372.869 1023.44 C372.199 1019.76 370.839 1016.23 370.136 1012.56 C370.046 1012.09 370.087 1010.97 370.521 1011.18 C376.243 1013.87 381.465 1017.51 387.035 1020.51 C390.684 1022.46 394.271 1024.62 398.166 1026.02 C401.13 1027.09 404.327 1027.37 407.438 1027.87 C408.137 1027.98 408.865 1027.99 409.562 1027.87 C411.975 1027.43 414.364 1026.86 416.725 1026.19 C418.593 1025.67 420.481 1025.15 422.234 1024.32 C424.656 1023.17 427.039 1021.89 429.19 1020.28 C430.234 1019.51 430.697 1016.44 431.689 1017.29 C433.03 1018.42 432.115 1020.82 431.869 1022.56 C430.924 1029.24 429.121 1035.77 428.129 1042.44 C427.833 1044.43 427.614 1046.51 428.014 1048.49 C428.49 1050.85 429.583 1053.05 430.707 1055.18 C431.112 1055.94 431.741 1056.68 432.533 1057.03 C437.032 1059.02 441.704 1060.62 446.388 1062.13 C447.992 1062.65 449.68 1062.87 451.351 1063.1 C456.724 1063.83 462.092 1064.71 467.507 1064.99 M477.55 1060.83 C477.55 1060.83 477.55 1060.83 477.55 1060.83 C474.846 1060.84 472.122 1061.2 469.439 1060.87 C467.796 1060.66 466.281 1059.86 464.75 1059.23 C463.086 1058.54 461.302 1058.01 459.868 1056.92 C458.716 1056.05 457.665 1054.87 457.201 1053.5 C457.026 1052.98 457.755 1052.23 458.297 1052.29 C458.968 1052.36 459.027 1053.91 459.685 1053.76 C462.388 1053.14 464.756 1051.51 467.224 1050.25 C467.914 1049.9 468.595 1049.48 469.133 1048.93 C469.813 1048.22 470.39 1047.4 470.82 1046.52 C470.892 1046.38 470.627 1046.12 470.476 1046.18 C469.43 1046.59 468.618 1047.54 467.529 1047.82 C467.14 1047.92 466.89 1047.12 466.496 1047.2 C466.135 1047.27 466.217 1047.93 465.921 1048.15 C464.543 1049.16 463.19 1050.34 461.555 1050.86 C460.871 1051.07 460.232 1050.27 459.526 1050.15 C458.852 1050.03 458.052 1049.79 457.474 1050.16 C456.146 1051 454.301 1051.96 454.178 1053.53 C454.032 1055.39 456.067 1056.77 456.823 1058.48 C456.886 1058.62 456.678 1058.83 456.522 1058.84 C454.167 1058.96 451.729 1059.46 449.446 1058.86 C444.339 1057.53 438.982 1056.21 434.679 1053.15 C432.761 1051.79 432.875 1048.8 432.137 1046.56 C432.02 1046.21 432.075 1045.81 432.135 1045.44 C433.462 1037.23 435.017 1029.06 436.297 1020.85 C437.3 1014.41 438.274 1007.97 438.986 1001.49 C439.134 1000.15 439.072 998.775 438.87 997.438 C438.477 994.837 437.923 992.255 437.207 989.725 C437.126 989.439 436.812 989.224 436.524 989.151 C435.978 989.012 435.328 988.849 434.833 989.12 C434.31 989.406 434.04 990.049 433.85 990.615 C432.37 995.028 430.986 999.479 429.845 1003.99 C429.023 1007.24 428.77 1010.61 427.969 1013.87 C427.821 1014.47 427.425 1015 427.02 1015.47 C426.154 1016.49 425.269 1017.52 424.184 1018.29 C422.968 1019.15 421.588 1019.79 420.199 1020.33 C417.703 1021.32 415.213 1022.47 412.56 1022.87 C409.554 1023.32 406.459 1023.23 403.439 1022.87 C401.731 1022.67 400.126 1021.9 398.552 1021.21 C395.316 1019.78 392.148 1018.19 389.035 1016.51 C383.565 1013.55 378.186 1010.42 372.814 1007.29 C371.775 1006.68 370.733 1006.06 369.81 1005.28 C368.685 1004.34 367.294 1003.51 366.702 1002.17 C364.081 996.222 362.874 989.72 360.316 983.744 C357.39 976.907 353.844 970.347 350.288 963.816 C349.49 962.35 348.403 961.049 347.285 959.81 C345.293 957.602 343.354 955.291 340.982 953.497 C340.308 952.989 339.292 952.941 338.474 953.149 C337.869 953.303 337.377 953.892 337.149 954.474 C336.896 955.119 336.834 955.931 337.138 956.554 C341.056 964.571 345.404 972.372 349.713 980.185 C351.199 982.88 353.179 985.297 354.516 988.068 C357.535 994.33 359.87 1000.9 362.753 1007.23 C363.483 1008.83 364.709 1010.19 365.344 1011.83 C366.424 1014.62 367.423 1017.48 367.869 1020.44 C368.271 1023.11 368.46 1025.92 367.862 1028.55 C367.524 1030.05 366.342 1031.29 365.184 1032.29 C363.89 1033.41 362.388 1034.58 360.689 1034.76 C359.849 1034.85 359.37 1033.67 358.897 1032.97 C357.507 1030.92 356.087 1028.85 355.135 1026.56 C354.788 1025.73 354.762 1024.69 355.102 1023.85 C355.448 1023 356.311 1022.46 357.034 1021.89 C357.855 1021.25 359.202 1021.17 359.7 1020.25 C359.957 1019.78 358.996 1019.41 358.526 1019.15 C358.225 1018.98 357.841 1018.98 357.5 1019.03 C356.987 1019.1 356.455 1019.22 356.018 1019.5 C355.499 1019.83 355.078 1020.31 354.715 1020.81 C354.112 1021.64 353.489 1022.48 353.138 1023.45 C352.902 1024.09 353.003 1024.81 353.002 1025.5 C353.001 1026.19 352.933 1026.9 353.134 1027.56 C353.525 1028.84 354.07 1030.08 354.753 1031.23 C355.598 1032.65 358.508 1033.78 357.693 1035.22 C356.635 1037.09 353.611 1036.62 351.493 1036.99 C350.183 1037.21 348.828 1037.11 347.503 1036.98 C346.975 1036.94 346.292 1036.92 345.993 1036.48 C344.761 1034.67 343.794 1032.65 343.134 1030.56 C342.824 1029.58 342.841 1028.45 343.149 1027.47 C343.334 1026.88 343.904 1026.37 344.499 1026.2 C344.875 1026.09 345.126 1026.71 345.506 1026.8 C345.643 1026.83 345.814 1026.67 345.83 1026.53 C345.878 1026.08 345.882 1025.59 345.682 1025.2 C345.297 1024.43 344.856 1023.6 344.131 1023.13 C343.801 1022.92 343.339 1023.28 343.017 1023.5 C342.524 1023.84 342.052 1024.26 341.75 1024.77 C341.078 1025.93 340.494 1027.16 340.134 1028.44 C339.944 1029.12 339.967 1029.87 340.133 1030.56 C340.539 1032.24 341.392 1033.79 341.833 1035.47 C341.874 1035.62 341.682 1035.83 341.521 1035.84 C338.496 1035.97 335.444 1036.23 332.438 1035.87 C330.229 1035.6 327.732 1035.4 326.043 1033.95 C325.162 1033.2 325.953 1031.62 326.147 1030.47 C326.213 1030.09 326.788 1029.89 326.799 1029.5 C326.81 1029.11 326.206 1028.89 326.202 1028.5 C326.199 1028.19 326.515 1027.92 326.781 1027.75 C327.701 1027.16 329.09 1027.16 329.699 1026.25 C329.998 1025.81 328.995 1025.41 328.526 1025.15 C328.225 1024.98 327.841 1024.98 327.5 1025.03 C326.987 1025.1 326.455 1025.22 326.018 1025.5 C325.51 1025.82 325.006 1026.24 324.747 1026.78 C323.648 1029.09 323.944 1032.28 322 1033.94 C320.59 1035.14 318.264 1034.2 316.441 1033.87 C315.126 1033.62 313.899 1032.97 312.772 1032.25 C311.055 1031.15 309.156 1030.12 307.972 1028.47 C306.525 1026.44 305.439 1024.03 305.134 1021.56 C304.438 1015.92 304.806 1010.18 305.015 1004.5 C305.042 1003.77 305.902 1003.19 305.838 1002.46 C305.589 999.637 304.808 996.882 304.102 994.137 C303.869 993.228 303.486 992.354 303.028 991.534 C302.837 991.193 302.505 990.946 302.19 990.715 C301.234 990.015 300.27 989.316 299.228 988.753 C298.052 988.118 296.878 987.348 295.559 987.134 C293.238 986.758 290.849 986.817 288.507 987.014 C283.025 987.474 277.606 988.521 272.135 989.101 C262.166 990.158 252.16 990.841 242.194 991.924 C240.276 992.132 238.428 993.056 236.5 992.971 C232.859 992.811 229.204 992.242 225.712 991.2 C223.893 990.657 222.351 989.406 220.816 988.289 C219.839 987.577 219.233 986.418 218.225 985.75 C217.101 985.006 215.856 983.908 214.525 984.12 C213.393 984.3 213.401 986.692 212.255 986.701 C210.798 986.712 209.729 985.19 208.692 984.165 C207.952 983.434 207.708 982.311 207.023 981.528 C205.37 979.637 203.353 978.085 201.712 976.184 C201.16 975.545 200.875 974.717 200.494 973.965 C199.199 971.407 197.845 968.875 196.682 966.254 C195.449 963.475 194.596 960.535 193.312 957.779 C192.249 955.498 190.603 953.505 189.656 951.173 C188.53 948.401 187.791 945.479 187.131 942.561 C186.906 941.566 186.931 940.52 187.016 939.503 C187.055 939.042 187.175 938.534 187.495 938.199 C187.626 938.063 187.84 938.369 187.975 938.501 C190.44 940.908 192.969 943.259 195.285 945.81 C196.163 946.777 196.605 948.1 197.529 949.024 C198.272 949.767 199.405 950.016 200.19 950.715 C202.514 952.783 204.308 955.448 206.816 957.289 C209.374 959.166 212.504 960.118 215.225 961.75 C215.857 962.13 216.216 962.858 216.815 963.287 C217.523 963.795 218.292 964.24 219.112 964.534 C222.437 965.729 225.905 966.505 229.214 967.744 C229.733 967.938 229.954 968.899 230.5 968.799 C231.344 968.645 231.68 967.474 232.474 967.149 C233.107 966.889 233.86 966.992 234.526 967.148 C234.909 967.238 235.095 967.745 235.474 967.852 C236.123 968.035 236.827 968.092 237.493 967.985 C242.187 967.234 246.863 966.352 251.496 965.287 C253.357 964.86 255.188 964.268 256.943 963.517 C259.097 962.596 261.187 961.512 263.184 960.288 C264.654 959.387 266.085 958.381 267.308 957.165 C268.046 956.432 268.272 955.293 268.977 954.528 C269.901 953.525 271.172 952.893 272.134 951.926 C272.953 951.102 273.714 950.196 274.287 949.185 C276.117 945.957 277.84 942.658 279.318 939.254 C280.868 935.685 282.24 932.029 283.357 928.301 C285.741 920.35 287.556 912.238 289.81 904.249 C290.993 900.059 292.141 895.849 293.665 891.772 C295.043 888.084 296.73 884.514 298.502 880.998 C299.751 878.518 301.21 876.144 302.715 873.81 C303.618 872.409 304.606 871.054 305.715 869.81 C307.469 867.84 309.546 866.173 311.285 864.19 C311.978 863.399 312.294 862.328 312.977 861.528 C314.147 860.157 315.435 858.88 316.81 857.715 C317.612 857.035 318.651 856.68 319.472 856.023 C320.327 855.339 320.901 854.326 321.81 853.715 C325.023 851.555 328.268 849.391 331.776 847.752 C335.848 845.849 340.016 843.895 344.446 843.138 C349.391 842.293 354.483 842.82 359.496 843.015 C360.543 843.056 361.481 843.808 362.527 843.843 C362.918 843.856 363.091 843.228 363.474 843.148 C364.461 842.942 365.498 842.875 366.496 843.015 C367.205 843.115 367.768 843.736 368.474 843.852 C369.799 844.069 371.157 844 372.5 844 C373.843 844 375.201 844.069 376.526 843.852 C377.232 843.736 377.789 843.049 378.503 843.015 C382.849 842.809 387.279 842.331 391.554 843.138 C393.673 843.537 395.144 845.545 397.069 846.517 C405.289 850.668 413.771 854.291 421.965 858.494 C424.032 859.555 425.809 861.113 427.814 862.287 C431.406 864.389 435 866.505 438.746 868.317 C443.263 870.503 447.795 872.738 452.574 874.268 C456.739 875.602 461.067 876.648 465.436 876.865 C467.512 876.969 469.496 875.923 471.448 875.206 C472.762 874.724 474.01 874.05 475.185 873.288 C475.803 872.886 476.135 872.116 476.776 871.75 C478.493 870.769 480.521 870.376 482.177 869.293 C483.404 868.491 484.494 867.416 485.288 866.184 C486.909 863.67 488.086 860.893 489.342 858.177 C489.752 857.291 490.078 856.357 490.275 855.401 C491.294 850.454 492.479 845.518 492.986 840.493 C493.387 836.518 493.388 832.482 492.986 828.507 C492.519 823.89 491.364 819.366 490.389 814.829 C490.078 813.379 489.349 812.028 489.132 810.561 C488.887 808.892 488.843 807.181 489.015 805.503 C489.088 804.791 489.683 804.222 489.852 803.526 C490.011 802.87 490.082 802.174 489.985 801.507 C488.932 794.253 487.909 786.985 486.408 779.81 C483.297 764.948 480.042 750.104 476.154 735.425 C474.778 730.23 472.103 725.446 470.639 720.275 C469.087 714.798 467.988 709.19 467.129 703.562 C466.775 701.237 466.785 698.848 467.014 696.507 C467.358 692.98 467.925 689.457 468.84 686.034 C469.757 682.606 471.083 679.291 472.49 676.034 C473.712 673.206 475.171 670.481 476.713 667.814 C477.917 665.732 479.18 663.661 480.715 661.81 C482.467 659.697 484.475 657.799 486.528 655.977 C487.314 655.279 488.399 654.978 489.19 654.285 C491.173 652.546 492.768 650.385 494.81 648.715 C496.456 647.368 498.459 646.521 500.19 645.285 C500.804 644.847 501.176 644.11 501.816 643.712 C504.731 641.898 507.742 640.235 510.804 638.683 C511.846 638.154 512.975 637.809 514.097 637.485 C517.213 636.585 520.281 635.351 523.506 635.014 C527.834 634.561 532.258 634.471 536.559 635.134 C540.252 635.704 543.731 637.275 547.199 638.666 C548.815 639.315 550.165 640.509 551.75 641.228 C553.194 641.883 554.822 642.082 556.249 642.771 C559.315 644.251 562.287 645.928 565.186 647.713 C570.104 650.743 576.529 652.369 579.685 657.208 C581.027 659.264 574.886 658.269 572.535 658.977 C572.336 659.037 572.163 659.268 572.159 659.476 C572.149 659.989 572.278 660.513 572.495 660.978 C572.637 661.284 573.143 661.373 573.197 661.706 C573.988 666.559 574.062 671.519 574.999 676.346 C575.592 679.396 576.665 682.341 577.768 685.245 C577.933 685.68 578.332 686.037 578.754 686.232 C580.255 686.925 581.846 687.416 583.438 687.862 C583.798 687.964 584.211 687.994 584.561 687.86 C586.802 687.004 589.116 686.225 591.132 684.924 C592.073 684.316 592.808 683.325 593.207 682.277 C594.054 680.051 592.64 676.337 594.788 675.309 C596.578 674.454 597.534 678.18 599.015 679.5 C599.328 679.779 599.837 679.778 600.134 680.074 C600.797 680.734 601.081 681.752 601.834 682.307 C605.469 684.992 609.545 687.043 613.19 689.715 C614.557 690.717 615.511 692.197 616.81 693.285 C617.616 693.96 618.732 694.231 619.472 694.977 C620.905 696.421 622.249 698 623.247 699.773 C625.729 704.186 628.603 708.542 629.862 713.446 C630.866 717.357 630.277 721.542 629.866 725.559 C629.729 726.889 628.905 728.064 628.247 729.228 C626.707 731.95 625.321 734.816 623.285 737.19 C621.255 739.557 618.678 741.406 616.19 743.285 C614.635 744.459 612.998 745.583 611.194 746.318 C607.877 747.671 604.401 748.621 600.93 749.506 C595.02 751.014 588.996 752.044 583.072 753.492 C574.872 755.498 566.911 758.62 558.562 759.869 C552.587 760.762 546.431 760.635 540.439 759.867 C537.036 759.432 533.874 757.792 530.778 756.311 C528.686 755.31 526.728 753.991 524.976 752.47 C524.182 751.782 523.959 750.615 523.285 749.81 C522.195 748.509 520.729 747.541 519.711 746.184 C518.712 744.852 518.251 743.175 517.289 741.816 C516.658 740.926 515.865 740.132 514.975 739.5 C514.717 739.317 514.305 739.351 514.026 739.5 C513.64 739.706 513.242 740.047 513.149 740.474 C512.929 741.477 512.814 742.58 513.138 743.554 C513.695 745.229 514.628 746.79 515.711 748.184 C518.203 751.39 520.833 754.522 523.81 757.285 C525.231 758.604 527.048 759.436 528.778 760.311 C530.316 761.089 531.936 761.715 533.581 762.228 C536.869 763.254 540.263 763.912 543.555 764.922 C544.014 765.062 544.808 765.186 544.787 765.665 C544.655 768.637 543.319 771.467 543.134 774.437 C543.047 775.816 544.09 777.116 543.985 778.493 C543.677 782.532 542.427 786.45 541.912 790.468 C541.102 796.789 539.499 803.141 540.014 809.493 C540.582 816.502 543.786 823.057 545.116 829.961 C546.181 835.489 546.625 841.12 547.186 846.721 C547.911 853.969 549.008 861.216 548.971 868.5 C548.951 872.555 547.472 876.478 547.014 880.507 C546.862 881.839 546.936 883.202 547.148 884.526 C547.26 885.229 548.018 885.786 547.97 886.497 C547.676 890.863 545.992 895.124 546.14 899.498 C546.334 905.243 548.568 910.774 548.986 916.507 C549.52 923.816 549.484 931.181 548.986 938.493 C548.596 944.212 547.362 949.844 546.33 955.482 C545.871 957.986 545.222 960.454 544.516 962.9 C544.099 964.347 543.274 965.67 542.963 967.144 C542.103 971.221 540.915 975.327 541.015 979.493 C541.092 982.734 542.426 985.836 543.483 988.901 C544.382 991.506 546.175 993.777 546.862 996.446 C547.365 998.399 547.034 1000.48 546.986 1002.49 C546.975 1002.94 546.881 1003.4 546.686 1003.81 C545.31 1006.65 544.14 1009.63 542.288 1012.18 C540.599 1014.51 538.345 1016.39 536.184 1018.29 C535.55 1018.85 534.713 1019.12 533.965 1019.51 C530.503 1021.31 527.075 1023.18 523.554 1024.86 C523.233 1025.02 522.85 1024.99 522.494 1024.99 C521.477 1024.99 520.42 1025.15 519.446 1024.86 C518.465 1024.57 517.603 1023.93 516.81 1023.28 C515.67 1022.35 514.324 1021.49 513.692 1020.16 C512.639 1017.94 512.278 1015.44 511.929 1013.01 C510.892 1005.8 510.867 998.457 509.54 991.3 C506.94 977.272 503.008 963.519 500.165 949.539 C500.084 949.141 500.715 948.914 500.842 948.529 C500.957 948.185 500.976 947.785 500.861 947.441 C500.436 946.175 499.885 944.948 499.247 943.775 C499.095 943.496 498.831 943.237 498.525 943.151 C497.993 943.001 497.325 942.794 496.867 943.104 C496.066 943.648 495.578 944.578 495.145 945.444 C494.977 945.778 495.063 946.197 495.135 946.563 C496.585 953.908 498.018 961.258 499.707 968.551 C500.251 970.9 501.395 973.094 501.829 975.466 C501.904 975.879 501.084 976.126 501.167 976.537 C501.906 980.211 503.614 983.659 504.221 987.358 C505.858 997.341 506.396 1007.48 507.884 1017.49 C508.223 1019.77 508.893 1022 509.695 1024.16 C509.898 1024.71 510.701 1024.91 510.851 1025.47 C511.117 1026.47 511.114 1027.56 510.869 1028.56 C509.556 1033.92 508.03 1039.24 506.204 1044.44 C505.494 1046.47 504.489 1048.41 503.288 1050.18 C502.572 1051.24 501.69 1052.32 500.526 1052.85 C499.601 1053.28 498.435 1053.19 497.474 1052.85 C496.707 1052.58 496.056 1051.91 495.707 1051.18 C493.916 1047.42 492.118 1043.6 491.134 1039.56 C490.576 1037.26 490.721 1034.79 491.157 1032.47 C491.244 1032.01 492.063 1032.09 492.527 1032.16 C492.914 1032.21 493.16 1032.98 493.506 1032.8 C493.91 1032.59 494 1031.9 493.842 1031.47 C493.626 1030.89 493.114 1030.35 492.526 1030.15 C491.688 1029.86 490.653 1029.69 489.867 1030.1 C489.007 1030.55 488.297 1031.49 488.138 1032.45 C487.696 1035.11 487.605 1037.91 488.134 1040.56 C488.804 1043.91 490.392 1047.02 491.68 1050.19 C492.01 1051 492.442 1051.78 492.978 1052.47 C493.823 1053.56 495.108 1054.3 495.798 1055.5 C495.965 1055.79 495.463 1056.11 495.183 1056.29 C493.696 1057.24 492.217 1058.27 490.554 1058.86 C489.706 1059.16 488.689 1059.23 487.853 1058.9 C487.086 1058.59 486.914 1057.41 486.147 1057.1 C485.319 1056.77 484.35 1056.98 483.474 1057.15 C482.773 1057.28 482.213 1057.96 481.5 1057.97 C480.849 1057.98 480.078 1057.72 479.714 1057.18 C477.891 1054.49 476.559 1051.48 475.138 1048.55 C474.983 1048.23 475.015 1047.85 475.014 1047.49 C475.013 1046.48 474.879 1045.43 475.134 1044.44 C475.469 1043.15 476.117 1041.95 476.753 1040.77 C477.362 1039.64 478.298 1038.71 478.856 1037.55 C479.014 1037.23 479.089 1036.73 478.834 1036.47 C478.506 1036.14 477.929 1036.06 477.473 1036.16 C476.869 1036.28 476.308 1036.64 475.866 1037.07 C475.047 1037.87 474.331 1038.79 473.753 1039.77 C473.077 1040.93 472.396 1042.13 472.134 1043.44 C471.805 1045.09 471.578 1046.87 472.014 1048.49 C472.726 1051.15 474.206 1053.54 475.494 1055.96 C476.154 1057.21 477.294 1058.18 477.842 1059.47 M984.443 1055.88 C984.443 1055.88 984.443 1055.88 984.443 1055.88 C985.012 1055.56 985.643 1055.34 986.148 1054.93 C986.793 1054.4 987.057 1053.34 987.854 1053.1 C989.336 1052.66 990.959 1052.84 992.496 1053.02 C993.543 1053.14 994.456 1053.87 995.504 1053.98 C997.489 1054.2 999.515 1054.26 1001.49 1053.99 C1004.28 1053.61 1007 1052.85 1009.69 1052.05 C1010.35 1051.85 1010.96 1051.47 1011.47 1051.02 C1012.84 1049.83 1014.43 1048.76 1015.29 1047.18 C1017.28 1043.52 1018.91 1039.61 1019.86 1035.56 C1020.18 1034.21 1019.14 1032.88 1019 1031.5 C1018.9 1030.5 1018.94 1029.46 1019.15 1028.47 C1019.23 1028.07 1019.85 1027.87 1019.84 1027.46 C1019.78 1025.97 1019.13 1024.55 1018.96 1023.07 C1018.23 1016.54 1016.95 1010.01 1017.14 1003.44 C1017.2 1001.38 1018.65 999.592 1019.71 997.823 C1020.12 997.126 1020.73 996.474 1021.47 996.149 C1022.11 995.871 1022.92 995.86 1023.55 996.138 C1027.84 998.011 1031.81 1000.56 1036.06 1002.52 C1038.12 1003.47 1040.22 1004.39 1042.44 1004.87 C1044.09 1005.22 1045.83 1005.26 1047.49 1004.99 C1058.79 1003.09 1070.02 1000.83 1081.21 998.365 C1082.86 998 1084.42 997.276 1085.93 996.513 C1091.84 993.531 1097.53 990.117 1103.44 987.144 C1103.77 986.981 1104.27 986.911 1104.53 987.166 C1104.86 987.493 1105.09 988.135 1104.84 988.527 C1102.74 991.814 1099.97 994.631 1097.71 997.815 C1096.59 999.403 1095.61 1001.1 1094.71 1002.82 C1093.75 1004.65 1092.58 1006.43 1092.13 1008.44 C1091.7 1010.43 1091.58 1012.6 1092.13 1014.56 C1093.07 1017.89 1094.92 1020.89 1096.49 1023.96 C1097.24 1025.42 1098.01 1026.9 1099.07 1028.13 C1100.14 1029.37 1101.43 1030.43 1102.82 1031.29 C1104.16 1032.12 1105.63 1032.78 1107.17 1033.12 C1112.54 1034.31 1117.98 1035.2 1123.44 1035.87 C1125.46 1036.12 1127.54 1036.14 1129.56 1035.87 C1134.19 1035.26 1138.9 1034.73 1143.33 1033.25 C1147.52 1031.84 1151.36 1029.51 1155.19 1027.29 C1157.67 1025.85 1159.95 1024.08 1162.19 1022.28 C1163.33 1021.37 1164.49 1020.41 1165.29 1019.18 C1166.83 1016.8 1168.07 1014.22 1169.13 1011.59 C1169.92 1009.65 1170.52 1007.61 1170.84 1005.54 C1170.9 1005.14 1170.2 1004.91 1170.2 1004.5 C1170.2 1004.11 1170.72 1003.9 1170.84 1003.53 C1170.95 1003.18 1170.97 1002.79 1170.86 1002.44 C1169.06 996.776 1166.46 991.351 1165.13 985.559 C1164.53 982.931 1164.77 980.142 1165.15 977.474 C1165.24 976.855 1165.85 976.222 1166.47 976.149 C1169.81 975.755 1173.21 975.853 1176.56 976.129 C1180.13 976.422 1183.64 977.154 1187.15 977.849 C1190.47 978.508 1193.7 979.585 1197.03 980.189 C1203.16 981.299 1209.3 982.507 1215.51 982.986 C1221.49 983.447 1227.5 983.034 1233.5 982.999 C1234.19 982.995 1234.89 983.029 1235.56 982.867 C1237.16 982.48 1238.73 981.931 1240.28 981.36 C1245.62 979.391 1250.97 977.449 1256.22 975.248 C1257.25 974.817 1258.07 973.982 1259.07 973.484 C1262.06 971.991 1265.27 970.933 1268.19 969.286 C1269.88 968.327 1271.19 966.793 1272.82 965.711 C1274.2 964.788 1275.85 964.288 1277.18 963.289 C1278.54 962.27 1279.51 960.804 1280.81 959.715 C1281.56 959.086 1282.69 958.929 1283.31 958.166 C1285.55 955.378 1287.5 952.351 1289.25 949.227 C1290.86 946.342 1292.14 943.279 1293.33 940.198 C1294.68 936.714 1296.14 933.224 1296.87 929.559 C1297.33 927.242 1297.22 924.806 1296.85 922.474 C1296.75 921.859 1296.14 921.245 1295.53 921.158 C1294.8 921.055 1293.98 921.448 1293.5 922 C1292.17 923.534 1291.5 925.55 1290.29 927.183 C1289.56 928.168 1288.45 928.829 1287.71 929.81 C1286.44 931.511 1285.58 933.507 1284.28 935.19 C1283.94 935.63 1283.26 935.68 1282.87 936.074 C1280.55 938.391 1278.78 941.291 1276.18 943.288 C1273.83 945.101 1270.94 946.106 1268.23 947.326 C1266.06 948.302 1263.9 949.463 1261.56 949.866 C1258.89 950.324 1256.09 950.433 1253.44 949.869 C1248 948.708 1242.9 946.282 1237.55 944.744 C1232.9 943.406 1228.07 942.752 1223.47 941.244 C1220.46 940.256 1217.51 938.967 1214.82 937.288 C1212.37 935.761 1210.46 933.493 1208.19 931.715 C1207.36 931.067 1206.31 930.726 1205.53 930.023 C1203.14 927.872 1200.86 925.585 1198.71 923.19 C1197.91 922.294 1197.29 921.24 1196.71 920.185 C1195.27 917.57 1193.83 914.947 1192.66 912.197 C1191.18 908.688 1189.9 905.09 1188.8 901.445 C1187.38 896.788 1186.46 891.996 1185.12 887.317 C1184.3 884.446 1183.5 881.552 1182.34 878.805 C1179.89 873.039 1177.1 867.419 1174.29 861.822 C1173.42 860.083 1172.44 858.387 1171.29 856.816 C1170.57 855.827 1169.48 855.147 1168.71 854.19 C1168.14 853.467 1167.89 852.513 1167.28 851.81 C1165.88 850.165 1164.07 848.881 1162.71 847.19 C1161.39 845.529 1160.66 843.433 1159.28 841.81 C1156.97 839.077 1154.11 836.85 1151.71 834.19 C1151.01 833.409 1150.74 832.3 1150.02 831.528 C1146.88 828.126 1143.82 824.593 1140.19 821.715 C1137.57 819.639 1134.48 818.222 1131.46 816.798 C1129.64 815.94 1127.7 815.302 1125.72 814.902 C1120.24 813.789 1114.66 813.264 1109.15 812.27 C1105.88 811.68 1102.6 811.114 1099.42 810.153 C1094.72 808.73 1090.31 806.389 1085.56 805.132 C1083.91 804.696 1082.13 804.912 1080.44 805.13 C1077.63 805.49 1074.83 806.022 1072.12 806.857 C1065.59 808.875 1059.13 811.142 1052.77 813.674 C1048.33 815.446 1044.02 817.548 1039.77 819.753 C1038.47 820.429 1037.46 821.579 1036.18 822.292 C1034.45 823.253 1032.47 823.734 1030.77 824.753 C1024.13 828.741 1017.89 833.39 1011.19 837.287 C1004.43 841.214 997.46 844.763 990.448 848.206 C988.903 848.965 987.226 849.438 985.56 849.867 C984.894 850.039 984.188 849.999 983.5 849.999 C981.147 849.998 978.764 850.245 976.441 849.866 C975.123 849.651 973.897 848.973 972.775 848.249 C971.948 847.717 971.305 846.929 970.694 846.159 C970.355 845.733 970.099 845.227 969.957 844.701 C966.908 833.349 962.978 822.169 961.131 810.561 C959.976 803.3 960.811 795.853 961.015 788.503 C961.035 787.787 961.765 787.216 961.799 786.5 C961.818 786.113 961.277 785.899 961.158 785.53 C961.045 785.183 961.107 784.8 961.131 784.437 C961.727 775.502 961.763 766.506 963.018 757.64 C964.167 749.524 966.811 741.685 968.324 733.628 C971.725 715.516 974.51 697.292 977.758 679.151 C978.397 675.578 979.731 672.114 979.986 668.493 C980.477 661.515 980.525 654.481 979.986 647.507 C979.654 643.215 978.613 638.984 977.385 634.858 C976.048 630.367 974.224 626.026 972.318 621.746 C971.007 618.802 969.127 616.138 967.751 613.224 C966.767 611.139 966.343 608.805 965.249 606.776 C962.842 602.311 960.045 598.065 957.285 593.81 C956.348 592.365 955.383 590.91 954.165 589.692 C953.336 588.863 952.274 588.284 951.227 587.753 C949.736 586.997 948.207 586.263 946.587 585.85 C934.301 582.717 921.978 579.699 909.562 577.13 C907.889 576.784 906.131 576.905 904.437 577.13 C899.377 577.802 894.227 578.277 889.359 579.814 C882.934 581.841 876.923 585.003 870.773 587.753 C869.993 588.102 869.387 588.785 868.593 589.1 C866.059 590.107 863.25 590.43 860.836 591.698 C859.535 592.38 858.612 593.647 857.715 594.81 C856.416 596.494 855.549 598.48 854.285 600.19 C853.698 600.984 852.966 601.674 852.19 602.285 C851.471 602.851 850.481 603.046 849.834 603.692 C849.142 604.385 848.911 605.436 848.285 606.19 C847.353 607.312 846.297 608.335 845.19 609.285 C843.945 610.354 842.694 611.46 841.245 612.232 C839.839 612.981 837.688 612.521 836.728 613.792 C835.347 615.622 835.719 618.271 835.035 620.46 C834.956 620.714 834.694 620.882 834.47 621.025 C831.949 622.636 829.205 623.91 826.816 625.711 C825.085 627.017 823.909 628.963 822.19 630.285 C819.552 632.314 816.37 633.587 813.81 635.715 C810.513 638.456 807.62 641.656 804.715 644.81 C803.829 645.771 803.395 647.1 802.47 648.024 C801.386 649.108 799.644 649.496 798.768 650.754 C797.366 652.769 796.438 655.135 795.86 657.522 C794.509 663.101 793.689 668.806 793.014 674.507 C792.776 676.512 792.9 678.557 793.129 680.563 C793.533 684.094 794.153 687.603 794.907 691.076 C795.377 693.241 796.042 695.365 796.797 697.447 C797.636 699.764 798.656 702.013 799.682 704.254 C800.296 705.595 800.891 706.96 801.712 708.184 C802.293 709.051 803.31 709.578 803.85 710.471 C804.14 710.951 803.7 711.741 804.1 712.133 C806.103 714.094 808.43 715.712 810.775 717.249 C812.807 718.582 815.13 719.424 817.19 720.715 C817.829 721.116 818.189 721.87 818.816 722.289 C820.201 723.212 821.798 723.788 823.184 724.711 C823.813 725.131 824.163 725.906 824.816 726.288 C827.392 727.795 830.033 729.224 832.802 730.336 C835.617 731.465 838.491 732.662 841.506 732.986 C846.805 733.555 852.195 733.555 857.493 732.986 C863.876 732.301 870.159 730.809 876.384 729.241 C879.095 728.558 881.671 727.397 884.221 726.251 C884.726 726.024 884.937 725.298 885.472 725.158 C885.981 725.025 886.62 725.166 887.006 725.523 C887.645 726.113 887.962 726.986 888.314 727.782 C889.291 729.987 890.546 732.134 890.986 734.506 C891.414 736.818 891.227 739.236 890.867 741.56 C890.603 743.266 889.612 744.78 889.137 746.439 C889.037 746.788 888.937 747.241 889.158 747.529 C889.886 748.478 891.583 748.763 891.819 749.935 C893.246 757.019 893.57 764.292 893.986 771.507 C894.293 776.828 894.23 782.172 893.985 787.496 C893.952 788.21 893.182 788.759 893.157 789.473 C893.132 790.199 893.879 790.817 893.842 791.543 C893.512 798.036 892.866 804.514 892.066 810.966 C891.629 814.488 890.478 817.904 890.134 821.437 C890.062 822.174 890.863 822.802 890.841 823.542 C890.732 827.158 889.969 830.729 889.747 834.339 C888.688 851.539 888.485 868.795 886.998 885.963 C886.57 890.893 884.428 895.575 884.014 900.506 C883.428 907.477 883.461 914.519 884.014 921.493 C884.383 926.151 885.133 930.86 886.765 935.239 C888.736 940.525 891.852 945.32 894.711 950.184 C895.69 951.848 897.224 953.134 898.247 954.772 C898.955 955.906 899.529 957.148 899.866 958.441 C900.123 959.429 900 960.48 899.999 961.5 C899.998 962.186 900.13 962.923 899.862 963.554 C896.707 970.981 892.853 978.101 889.778 985.561 C888.601 988.416 887.747 991.413 887.132 994.439 C886.859 995.783 886.783 997.229 887.138 998.554 C887.675 1000.56 888.614 1002.48 889.75 1004.22 C890.547 1005.45 891.74 1006.37 892.848 1007.31 C893.214 1007.63 893.666 1007.86 894.134 1007.97 C898.52 1009.01 903.044 1009.47 907.366 1010.75 C911.767 1012.05 916.119 1013.63 920.221 1015.69 C923.533 1017.35 926.22 1020.08 929.473 1021.85 C930.074 1022.18 930.857 1022 931.526 1021.85 C931.91 1021.77 932.129 1021.31 932.506 1021.2 C932.641 1021.16 932.852 1021.33 932.829 1021.47 C932.382 1024.15 931.433 1026.74 931.13 1029.44 C930.866 1031.8 930.54 1034.26 931.138 1036.55 C931.771 1038.98 933.344 1041.08 934.711 1043.18 C935.251 1044.01 936.033 1044.67 936.81 1045.28 C938.373 1046.52 940.457 1047.16 941.708 1048.72 C942.109 1049.21 941.052 1049.87 941.016 1050.5 C940.971 1051.3 940.842 1052.36 941.472 1052.84 C942.176 1053.38 943.349 1053.31 944.133 1052.9 C945.206 1052.33 945.326 1050.16 946.54 1050.17 C949.67 1050.19 952.409 1052.49 955.502 1052.97 C956.54 1053.13 957.463 1052.16 958.504 1052.02 C959.503 1051.88 960.539 1051.94 961.526 1052.15 C961.911 1052.23 962.095 1052.74 962.474 1052.85 C963.125 1053.04 963.823 1052.98 964.5 1053 C965.832 1053.03 967.177 1053.17 968.496 1052.98 C969.204 1052.88 969.777 1052.32 970.472 1052.15 C971.01 1052.02 971.67 1051.8 972.133 1052.1 C973.141 1052.77 973.332 1054.98 974.529 1054.82 C976.558 1054.55 977.699 1052.21 979.445 1051.14 C979.753 1050.96 980.187 1051.04 980.529 1051.16 C981.067 1051.34 981.637 1051.59 982.001 1052.03 M1005.54 1048.98 C1005.54 1048.98 1005.54 1048.98 1005.54 1048.98 C1000.53 1048.98 995.513 1049.12 990.504 1048.98 C990.03 1048.97 989.382 1048.94 989.157 1048.53 C988.832 1047.93 989.01 1047.14 989.148 1046.47 C989.292 1045.77 989.912 1045.21 989.985 1044.5 C990.156 1042.82 990.235 1041.08 989.867 1039.44 C988.964 1035.39 987.726 1031.41 986.203 1027.56 C985.399 1025.52 984.258 1023.6 982.926 1021.87 C982.224 1020.95 981.313 1020.04 980.2 1019.74 C974.543 1018.19 968.609 1017.83 962.925 1016.39 C961.434 1016.01 960.067 1015.18 958.815 1014.29 C956.467 1012.61 954.475 1010.48 952.19 1008.72 C951.38 1008.09 950.566 1007.29 949.555 1007.14 C948.503 1006.99 947.496 1008.02 946.446 1007.86 C945.559 1007.72 944.155 1007.2 944.241 1006.31 C944.477 1003.85 946.482 1001.88 947.245 999.528 C949.197 993.515 950.792 987.39 952.37 981.268 C955 971.065 958.13 960.953 959.868 950.561 C960.645 945.918 960.259 941.13 959.869 936.438 C959.704 934.468 958.909 932.593 958.218 930.741 C958.113 930.458 957.82 930.22 957.525 930.159 C957.086 930.069 956.594 930.127 956.19 930.321 C955.483 930.662 954.574 930.983 954.292 931.715 C954.064 932.308 955.02 932.863 954.97 933.497 C954.308 941.863 953.352 950.209 952.17 958.519 C951.528 963.032 950.828 967.571 949.504 971.933 C945.186 986.161 941.063 1000.51 935.268 1014.21 C934.56 1015.88 932.271 1017.23 930.5 1016.84 C927.05 1016.07 924.638 1012.87 921.557 1011.14 C921.1 1010.88 920.313 1011.36 920 1010.94 C919.049 1009.67 918.496 1008.11 918.133 1006.56 C917.823 1005.24 917.855 1003.85 918.015 1002.5 C918.1 1001.79 918.738 1001.23 918.852 1000.53 C919.066 999.202 919.07 997.842 918.985 996.503 C918.952 995.984 918.777 995.461 918.503 995.019 C918.274 994.651 917.959 994.203 917.527 994.158 C916.92 994.094 915.98 994.154 915.787 994.733 C914.365 999.013 914.358 1003.68 912.941 1007.96 C912.784 1008.44 911.918 1008.02 911.443 1007.86 C909.17 1007.1 906.932 1006.23 904.753 1005.23 C904.472 1005.1 904.217 1004.82 904.149 1004.52 C903.999 1003.84 903.97 1003.11 904.132 1002.44 C904.538 1000.76 905.527 999.24 905.833 997.537 C905.904 997.139 905.18 996.904 905.201 996.5 C905.236 995.784 905.874 995.205 905.985 994.496 C906.139 993.511 906.089 992.496 905.984 991.504 C905.934 991.032 905.944 990.383 905.527 990.157 C904.926 989.833 904.147 990.012 903.478 990.15 C903.188 990.209 902.872 990.433 902.797 990.719 C901.809 994.467 901.367 998.347 900.333 1002.08 C900.141 1002.78 899.827 1003.64 899.151 1003.89 C897.999 1004.31 896.645 1004.21 895.474 1003.85 C894.719 1003.62 894.172 1002.89 893.751 1002.22 C893.038 1001.1 892.352 999.876 892.134 998.558 C891.802 996.547 891.688 994.431 892.134 992.441 C892.885 989.092 894.303 985.918 895.675 982.772 C898.216 976.947 901.801 971.565 903.862 965.554 C904.625 963.329 903.998 960.852 903.999 958.5 C903.999 957.812 904.067 957.099 903.865 956.441 C903.474 955.163 902.934 953.918 902.247 952.772 C899.875 948.819 896.967 945.196 894.708 941.178 C893.127 938.367 891.672 935.437 890.76 932.344 C889.427 927.83 888.6 923.163 888.014 918.493 C887.682 915.851 887.815 913.159 888.015 910.503 C888.094 909.459 888.808 908.519 888.843 907.473 C888.856 907.081 888.228 906.909 888.148 906.526 C887.942 905.54 887.847 904.5 888.014 903.506 C888.587 900.095 889.802 896.811 890.352 893.396 C891.413 886.811 892.269 880.187 892.841 873.542 C892.876 873.133 892.255 872.922 892.147 872.526 C891.97 871.875 891.976 871.18 892.015 870.507 C892.898 855.033 893.781 839.557 894.913 824.099 C895.171 820.576 895.865 817.097 896.184 813.579 C897.182 802.562 898.675 791.561 898.862 780.501 C898.953 775.13 897.472 769.845 897.014 764.493 C896.899 763.157 896.939 761.798 897.147 760.474 C897.208 760.088 897.799 759.891 897.799 759.5 C897.799 759.109 897.222 758.909 897.147 758.526 C896.953 757.536 896.879 756.503 897.015 755.503 C897.114 754.775 897.927 754.188 897.839 753.459 C896.935 746.003 895.771 738.561 894.075 731.244 C893.525 728.872 892.025 726.823 891.139 724.555 C891.004 724.211 890.844 723.772 891.029 723.452 C891.438 722.744 892.075 722.151 892.774 721.728 C897.151 719.082 902.038 717.27 906.19 714.285 C909.792 711.695 912.303 707.791 915.855 705.133 C916.327 704.781 916.887 705.78 917.473 705.843 C917.998 705.899 918.685 705.885 919.013 705.471 C919.909 704.34 920.499 702.954 920.865 701.559 C921.127 700.564 921.15 699.458 920.851 698.474 C920.67 697.876 920.124 697.329 919.526 697.149 C918.552 696.854 917.311 696.57 916.474 697.149 C913.676 699.08 911.734 702.03 909.19 704.285 C908.505 704.892 907.481 705.046 906.834 705.692 C906.103 706.423 905.901 707.581 905.166 708.308 C904.318 709.146 903.218 709.69 902.186 710.287 C898.494 712.422 894.812 714.584 891.002 716.498 C886.155 718.933 881.216 721.184 876.232 723.323 C874.493 724.069 872.704 724.738 870.856 725.141 C865.792 726.246 860.684 727.19 855.54 727.838 C855.137 727.889 854.906 727.181 854.5 727.201 C853.784 727.235 853.209 727.905 852.496 727.985 C850.843 728.17 849.156 728.2 847.506 727.986 C844.346 727.576 841.196 726.99 838.13 726.121 C835.597 725.404 833.075 724.524 830.772 723.247 C824.413 719.719 818.489 715.453 812.228 711.753 C811.147 711.115 809.729 711.065 808.775 710.25 C807.485 709.148 806.578 707.645 805.713 706.186 C804.138 703.527 802.683 700.786 801.48 697.939 C800.407 695.399 799.543 692.76 798.907 690.076 C798.088 686.617 797.621 683.083 797.129 679.562 C797.033 678.873 796.989 678.152 797.148 677.474 C797.238 677.093 797.841 676.919 797.843 676.527 C797.845 675.801 797.08 675.18 797.16 674.458 C797.754 669.097 798.588 663.746 799.839 658.499 C800.23 656.862 800.948 655.233 802.048 653.959 C802.86 653.019 804.466 653.069 805.314 652.16 C806.755 650.615 807.352 648.425 808.715 646.81 C810.871 644.253 813.174 641.773 815.81 639.715 C819.472 636.855 823.059 633.474 827.509 632.135 C828.935 631.706 829.401 634.571 830.741 635.221 C832.838 636.239 835.216 636.558 837.507 636.985 C838.18 637.111 838.931 637.141 839.558 636.866 C842.538 635.555 845.651 634.333 848.184 632.289 C850.838 630.147 852.902 627.326 854.851 624.526 C855.238 623.97 854.996 623.177 854.998 622.5 C855 621.814 855.097 621.09 854.862 620.446 C854.511 619.484 853.948 618.59 853.285 617.81 C851.745 615.998 848.565 615.076 848.291 612.714 C848.087 610.95 851.083 610.497 852.285 609.19 C852.996 608.416 853.284 607.319 853.977 606.528 C855.629 604.639 857.633 603.078 859.285 601.19 C859.977 600.399 860.321 599.35 860.977 598.528 C861.576 597.777 862.229 597.038 863.025 596.5 C863.287 596.323 863.695 596.353 863.975 596.5 C864.566 596.811 864.916 598.123 865.5 597.799 C867.646 596.611 868.932 594.283 870.815 592.712 C871.472 592.164 872.284 591.825 873.068 591.484 C879.112 588.86 885.087 586.044 891.29 583.822 C893.93 582.876 896.71 582.226 899.506 582.014 C904.178 581.659 908.901 581.642 913.561 582.132 C915.882 582.377 917.985 583.641 920.253 584.197 C928.217 586.146 936.304 587.583 944.24 589.644 C945.967 590.092 947.58 590.913 949.177 591.708 C949.889 592.062 950.571 592.512 951.133 593.074 C952.286 594.225 953.378 595.457 954.285 596.81 C956.513 600.133 958.622 603.544 960.516 607.068 C961.695 609.264 962.375 611.699 963.484 613.931 C964.647 616.273 966.302 618.365 967.324 620.772 C969.826 626.662 972.344 632.587 974.029 638.76 C975.248 643.225 975.657 647.89 975.986 652.507 C976.272 656.515 976.455 660.586 975.871 664.563 C972.589 686.897 968.516 709.11 964.409 731.307 C962.839 739.792 960.44 748.109 958.844 756.588 C957.978 761.185 957.321 765.835 957.029 770.503 C956.985 771.214 957.74 771.771 957.852 772.474 C958.063 773.798 958.093 775.157 957.986 776.493 C957.479 782.845 956.42 789.148 956.014 795.507 C955.8 798.852 955.692 802.239 956.13 805.562 C956.857 811.085 958.203 816.513 959.494 821.932 C961.458 830.182 963.589 838.395 965.891 846.557 C966.09 847.264 966.51 847.908 966.979 848.473 C967.832 849.5 968.697 850.576 969.823 851.293 C971.56 852.4 973.401 853.586 975.441 853.866 C979.771 854.459 984.396 855.209 988.554 853.862 C996.615 851.251 1003.73 846.306 1011.19 842.287 C1012.49 841.583 1013.55 840.486 1014.81 839.713 C1019.55 836.818 1024.48 834.231 1029.18 831.289 C1029.82 830.888 1030.15 830.08 1030.82 829.712 C1033.2 828.385 1035.84 827.573 1038.22 826.249 C1038.87 825.891 1039.22 825.143 1039.82 824.712 C1040.51 824.212 1041.29 823.848 1042.07 823.484 C1046.28 821.501 1050.45 819.404 1054.77 817.674 C1061.58 814.951 1068.28 811.731 1075.44 810.134 C1079.71 809.182 1084.25 809.352 1088.55 810.138 C1091.74 810.72 1094.35 813.088 1097.41 814.149 C1100.2 815.116 1103.12 815.677 1106.03 816.196 C1111.98 817.261 1118.04 817.75 1123.98 818.898 C1125.79 819.248 1127.54 819.933 1129.23 820.679 C1131.95 821.876 1134.78 822.968 1137.18 824.712 C1139.59 826.457 1141.48 828.835 1143.5 831.015 C1143.79 831.322 1143.78 831.838 1144.07 832.133 C1144.97 833.028 1146.17 833.596 1147.02 834.529 C1147.73 835.303 1148.02 836.405 1148.71 837.19 C1150.78 839.512 1153.29 841.422 1155.28 843.81 C1156.65 845.444 1157.39 847.529 1158.71 849.19 C1160.07 850.881 1161.87 852.167 1163.28 853.81 C1163.97 854.607 1164.32 855.651 1164.98 856.472 C1165.66 857.329 1166.67 857.909 1167.29 858.816 C1168.8 861.033 1170.11 863.385 1171.31 865.782 C1173.8 870.721 1176.21 875.702 1178.34 880.805 C1179.48 883.56 1180.3 886.446 1181.12 889.317 C1182.45 894.001 1183.37 898.799 1184.78 903.459 C1185.89 907.112 1187.19 910.713 1188.68 914.228 C1189.83 916.967 1191.28 919.58 1192.71 922.185 C1193.29 923.24 1193.9 924.302 1194.71 925.19 C1197.52 928.261 1200.46 931.212 1203.53 934.023 C1204.3 934.734 1205.36 935.067 1206.19 935.715 C1208.46 937.493 1210.43 939.661 1212.82 941.288 C1214.67 942.556 1216.69 943.645 1218.83 944.346 C1224.31 946.142 1230.04 947.068 1235.55 948.744 C1238.54 949.651 1241.32 951.162 1244.3 952.084 C1246.99 952.913 1249.71 953.694 1252.51 953.986 C1255.82 954.332 1259.2 954.48 1262.49 953.986 C1265.19 953.581 1267.72 952.396 1270.23 951.326 C1272.96 950.158 1275.62 948.797 1278.18 947.288 C1279.62 946.442 1281.01 945.462 1282.19 944.285 C1283.3 943.185 1283.95 941.7 1284.98 940.528 C1286.23 939.098 1287.56 937.721 1289.02 936.501 C1289.23 936.328 1289.71 936.234 1289.83 936.474 C1290.03 936.873 1289.85 937.392 1289.68 937.807 C1288.67 940.325 1287.6 942.828 1286.31 945.219 C1284.67 948.279 1283.08 951.409 1280.92 954.132 C1279.33 956.149 1277.24 957.745 1275.18 959.289 C1273.85 960.287 1272.2 960.788 1270.82 961.711 C1270.19 962.13 1269.81 962.853 1269.19 963.285 C1267.5 964.462 1265.76 965.579 1263.93 966.516 C1261.71 967.651 1259.31 968.392 1257.07 969.484 C1256.07 969.973 1255.25 970.817 1254.22 971.248 C1249.17 973.369 1244.1 975.484 1238.87 977.121 C1235.83 978.072 1232.67 978.68 1229.49 978.986 C1226.18 979.305 1222.82 979.298 1219.51 978.986 C1213.46 978.417 1207.46 977.389 1201.47 976.35 C1197.56 975.672 1193.74 974.569 1189.84 973.84 C1184.44 972.828 1179.02 971.789 1173.56 971.13 C1171.54 970.885 1169.45 970.801 1167.44 971.134 C1166.12 971.352 1164.9 972.032 1163.77 972.75 C1162.98 973.259 1162.22 973.924 1161.77 974.754 C1160.98 976.207 1160.46 977.818 1160.13 979.439 C1159.87 980.765 1159.69 982.181 1160.01 983.494 C1161.26 988.568 1163.11 993.481 1164.81 998.422 C1165.06 999.14 1165.76 999.692 1165.86 1000.45 C1166.16 1002.78 1166.03 1005.15 1165.99 1007.49 C1165.98 1007.94 1165.88 1008.4 1165.69 1008.81 C1164.31 1011.64 1163.35 1014.8 1161.29 1017.18 C1159.08 1019.74 1156.06 1021.5 1153.19 1023.29 C1149.78 1025.4 1146.27 1027.4 1142.52 1028.82 C1142.09 1028.99 1142.09 1027.93 1142.16 1027.47 C1142.26 1026.77 1142.92 1026.21 1142.98 1025.5 C1143.16 1023.5 1143.55 1021.36 1142.85 1019.47 C1142.31 1018.01 1140.93 1016.86 1139.53 1016.16 C1138.89 1015.84 1138.21 1016.8 1137.5 1016.8 C1137.11 1016.8 1136.9 1016.27 1136.53 1016.16 C1136.19 1016.05 1135.66 1015.87 1135.47 1016.17 C1135.27 1016.5 1135.53 1017.01 1135.81 1017.28 C1136.92 1018.34 1138.43 1018.93 1139.5 1020.02 C1139.87 1020.39 1139.94 1020.98 1139.98 1021.5 C1140.07 1022.52 1140.17 1023.58 1139.86 1024.55 C1139.24 1026.54 1138.42 1028.5 1137.25 1030.22 C1136.89 1030.75 1136.13 1030.94 1135.5 1030.98 C1132.51 1031.2 1129.5 1031.13 1126.5 1031 C1125.71 1030.96 1124.12 1031.27 1124.18 1030.48 C1124.3 1028.61 1126.3 1027.34 1126.86 1025.55 C1127.27 1024.26 1127.38 1022.79 1126.98 1021.5 C1126.3 1019.27 1125.52 1016.79 1123.72 1015.3 C1123.02 1014.72 1122.14 1016.6 1122.16 1017.5 C1122.19 1018.63 1123.63 1019.34 1123.86 1020.45 C1124.21 1022.1 1124.36 1023.91 1123.85 1025.53 C1123.37 1027.07 1122.04 1028.22 1121.02 1029.47 C1120.6 1030 1120.12 1030.52 1119.53 1030.84 C1119.21 1031.01 1118.79 1030.93 1118.44 1030.87 C1115.66 1030.34 1112.88 1029.81 1110.15 1029.08 C1109.5 1028.9 1108.27 1028.83 1108.34 1028.16 C1108.56 1026.12 1110.23 1024.51 1110.87 1022.56 C1111.09 1021.89 1111.01 1021.13 1110.87 1020.44 C1110.46 1018.5 1109.94 1016.58 1109.22 1014.74 C1108.41 1012.69 1107.37 1010.74 1106.29 1008.82 C1106.13 1008.53 1105.84 1008.27 1105.53 1008.16 C1105.19 1008.04 1104.72 1007.92 1104.47 1008.17 C1104.14 1008.49 1103.99 1009.09 1104.16 1009.53 C1104.47 1010.32 1105.52 1010.69 1105.8 1011.5 C1105.93 1011.88 1105.14 1012.13 1105.18 1012.53 C1105.25 1013.23 1105.9 1013.75 1106.11 1014.42 C1106.84 1016.75 1107.52 1019.1 1107.97 1021.5 C1108.05 1021.94 1107.89 1022.41 1107.69 1022.81 C1106.94 1024.22 1106.27 1025.73 1105.14 1026.86 C1104.86 1027.14 1104.33 1026.74 1104.02 1026.5 C1103.16 1025.83 1102.29 1025.11 1101.71 1024.18 C1099.98 1021.43 1098.13 1018.65 1097.14 1015.55 C1096.52 1013.63 1097 1011.52 1097 1009.5 C1097 1008.81 1096.88 1008.08 1097.14 1007.45 C1097.8 1005.81 1098.78 1004.32 1099.71 1002.81 C1100.98 1000.77 1102.29 998.746 1103.71 996.81 C1105.15 994.865 1106.92 993.175 1108.29 991.184 C1109.13 989.955 1109.89 988.626 1110.33 987.201 C1113.06 978.458 1114.75 969.397 1117.77 960.753 C1118.89 957.539 1120.92 954.711 1122.71 951.814 C1125.29 947.639 1128.58 943.896 1130.86 939.554 C1131.26 938.799 1130.81 937.814 1130.5 937.019 C1130.34 936.613 1129.94 936.269 1129.53 936.149 C1128.87 935.96 1128.04 935.762 1127.47 936.149 C1125.64 937.405 1124.04 939.031 1122.71 940.816 C1121.28 942.751 1120.67 945.21 1119.29 947.184 C1118.31 948.576 1116.79 949.5 1115.71 950.816 C1115.17 951.478 1114.79 952.268 1114.49 953.067 C1111.31 961.395 1108.59 969.893 1105.3 978.171 C1104.85 979.295 1104.04 980.247 1103.28 981.19 C1102.66 981.961 1102.01 982.738 1101.18 983.288 C1098.97 984.771 1096.6 986.032 1094.23 987.247 C1092.56 988.1 1090.74 988.63 1089.07 989.483 C1087.3 990.388 1085.72 991.633 1083.93 992.513 C1082.41 993.268 1080.84 994.004 1079.17 994.374 C1068.33 996.789 1057.52 999.553 1046.5 1000.86 C1044.05 1001.15 1041.59 1000.03 1039.31 999.084 C1034.56 997.11 1030.36 993.945 1025.55 992.138 C1023.98 991.545 1022.18 991.923 1020.5 992.015 C1019.98 992.044 1019.43 992.174 1019.02 992.497 C1017.79 993.468 1016.64 994.561 1015.71 995.816 C1014.66 997.236 1013.89 998.85 1013.14 1000.45 C1012.99 1000.77 1013.02 1001.15 1013.01 1001.51 C1012.98 1005.83 1012.67 1010.18 1013.01 1014.49 C1013.28 1017.86 1014.48 1021.1 1014.84 1024.46 C1014.88 1024.86 1014.18 1025.09 1014.2 1025.5 C1014.23 1026.22 1014.95 1026.79 1014.98 1027.5 C1015.17 1030.85 1015.55 1034.27 1014.86 1037.55 C1014.29 1040.3 1012.71 1042.75 1011.29 1045.18 C1010.79 1046.03 1009.97 1046.68 1009.19 1047.28 C1008.38 1047.91 1007.48 1048.43 1006.55 1048.86 M964.546 1048.84 C964.546 1048.84 964.546 1048.84 964.546 1048.84 C963.402 1048.24 961.507 1048.27 961.115 1047.04 C960.721 1045.8 962.669 1044.84 962.862 1043.55 C963.311 1040.57 962.997 1037.52 962.999 1034.5 C962.999 1033.81 963.071 1033.1 962.867 1032.44 C962.397 1030.93 961.986 1029.31 961 1028.06 C960.682 1027.66 959.883 1027.86 959.469 1028.16 C959.087 1028.44 959.061 1029.03 959.016 1029.5 C958.952 1030.18 958.989 1030.87 959.148 1031.53 C959.316 1032.22 959.938 1032.79 959.985 1033.5 C960.18 1036.51 960.296 1039.57 959.862 1042.55 C959.715 1043.57 958.912 1044.38 958.285 1045.19 C957.79 1045.83 957.312 1046.67 956.526 1046.85 C954.57 1047.3 952.51 1047.07 950.504 1046.98 C950.03 1046.96 949.328 1046.97 949.157 1046.53 C948.786 1045.57 948.928 1044.45 949.132 1043.44 C949.544 1041.4 950.631 1039.54 950.986 1037.49 C951.217 1036.16 951.166 1034.76 950.865 1033.44 C950.55 1032.06 949.379 1030.94 949.171 1029.53 C949.063 1028.81 949.932 1028.23 949.984 1027.5 C950.04 1026.69 950.148 1024.67 949.481 1025.13 C948.128 1026.05 947.625 1027.88 947.132 1029.44 C946.823 1030.42 946.977 1031.51 947.148 1032.53 C947.266 1033.23 947.9 1033.79 947.985 1034.5 C948.145 1035.85 948.234 1037.26 947.866 1038.56 C947.237 1040.78 947.265 1044.25 945.045 1044.88 C942.684 1045.55 940.3 1043.01 938.69 1041.16 C936.843 1039.04 935.435 1036.29 935.146 1033.49 C934.816 1030.29 936.053 1027.1 936.922 1024 C937.903 1020.5 939.251 1017.11 940.677 1013.77 C941.236 1012.47 941.567 1010.7 942.858 1010.11 C944.582 1009.31 946.69 1009.78 948.554 1010.14 C949.559 1010.33 950.379 1011.09 951.19 1011.72 C953.474 1013.48 955.471 1015.61 957.815 1017.29 C958.994 1018.13 960.286 1018.92 961.698 1019.26 C967.064 1020.53 972.644 1020.77 978.001 1022.09 C978.927 1022.31 979.645 1023.1 980.285 1023.81 C981.1 1024.71 981.913 1025.69 982.305 1026.84 C983.829 1031.3 985.056 1035.88 985.986 1040.51 C986.252 1041.83 986.182 1043.24 985.865 1044.56 C985.589 1045.7 985.038 1046.83 984.249 1047.7 C984.045 1047.92 983.822 1047.2 983.523 1047.15 C982.394 1046.95 980.541 1048.03 980.09 1046.98 C978.46 1043.17 979.259 1038.7 978.195 1034.7 C977.91 1033.63 977.133 1032.57 976.133 1032.1 C975.038 1031.59 973.71 1031.92 972.503 1032.02 C972.042 1032.05 971.526 1032.16 971.201 1032.49 C971.059 1032.64 971.363 1032.88 971.525 1033 C972.372 1033.63 973.366 1034.05 974.19 1034.71 C974.819 1035.22 975.735 1035.68 975.851 1036.47 C976.32 1039.68 978.057 1043.81 975.868 1046.21 M750.583 512.191 C750.583 512.191 750.583 512.191 750.583 512.191 C749.781 510.636 747.817 509.239 748.178 507.528 C748.611 505.474 750.96 504.372 752.527 502.977 C753.313 502.278 754.384 501.96 755.19 501.285 C756.489 500.197 757.486 498.774 758.81 497.715 C760.832 496.098 763.146 494.875 765.19 493.285 C766.156 492.534 766.854 491.479 767.81 490.715 C768.532 490.137 769.487 489.887 770.19 489.285 C771.835 487.875 773.133 486.087 774.81 484.715 C776.814 483.076 779.167 481.901 781.19 480.285 C782.502 479.237 783.335 477.607 784.779 476.749 C786.844 475.52 789.109 474.347 791.504 474.151 C793.235 474.009 794.844 475.127 796.448 475.793 C798.339 476.578 800.19 477.471 801.964 478.494 C804.776 480.115 807.569 481.79 810.184 483.711 C811.363 484.578 812.506 485.579 813.288 486.816 C815.425 490.198 817.526 493.675 818.862 497.446 C819.431 499.051 819.451 500.957 818.862 502.554 C818.085 504.662 816.619 506.536 814.953 508.044 C813.669 509.206 811.881 509.653 810.283 510.32 C808.723 510.97 807.174 511.798 805.494 511.986 C802.495 512.321 799.416 512.375 796.441 511.866 C794.515 511.536 792.799 510.425 791.069 509.517 C789.247 508.56 787.517 507.434 785.81 506.285 C784.427 505.354 783.072 504.373 781.81 503.285 C780.306 501.989 779.256 500.122 777.526 499.149 C776.639 498.649 775.422 498.79 774.472 499.157 C774.03 499.328 774.062 500.032 774.017 500.504 C773.952 501.176 773.743 501.985 774.149 502.524 C774.901 503.522 776.261 503.879 777.19 504.715 C779.225 506.545 780.997 508.652 783.015 510.5 C783.324 510.783 783.839 510.776 784.133 511.074 C784.95 511.901 785.695 512.815 786.287 513.814 C787.945 516.617 789.551 519.465 790.862 522.446 C791.138 523.073 791.053 523.815 790.984 524.496 C790.931 525.014 790.769 525.535 790.502 525.982 C790.252 526.401 789.866 526.735 789.472 527.023 C788.543 527.701 787.681 528.633 786.554 528.862 C784.568 529.266 782.224 529.874 780.474 528.851 C776.929 526.78 774.424 523.276 771.715 520.19 C769.923 518.149 768.741 515.631 767.023 513.528 C765.819 512.054 764.476 510.674 762.981 509.498 C762.576 509.179 761.96 508.99 761.472 509.158 C760.884 509.361 760.376 509.895 760.149 510.474 C759.899 511.111 759.79 511.944 760.149 512.526 C761.568 514.829 763.697 516.62 765.285 518.81 C766.492 520.476 767.56 522.247 768.516 524.069 C769.425 525.799 770.316 527.565 770.865 529.441 C771.152 530.419 771.062 531.48 770.984 532.496 C770.948 532.969 770.982 533.706 770.528 533.843 C769.225 534.235 767.724 534.328 766.446 533.862 C764.365 533.104 762.407 531.866 760.834 530.308 C759.195 528.684 758.599 526.216 757.024 524.529 C755.96 523.389 753.806 523.389 753.084 522.006 M740.133 544.425 C740.133 544.425 740.133 544.425 740.133 544.425 C739.504 546.026 739.061 547.713 738.247 549.228 C734.438 556.314 731.084 563.733 726.285 570.19 C722.321 575.523 717.129 579.84 712.19 584.285 C710.609 585.708 708.524 586.456 706.81 587.715 C704.629 589.316 702.829 591.432 700.526 592.851 C699.944 593.21 699.143 592.995 698.474 592.852 C698.091 592.77 697.634 591.835 697.496 592.202 C697.219 592.935 698.051 593.772 697.842 594.527 C697.677 595.121 696.984 596.18 696.5 595.799 C693.645 593.553 692.069 589.931 689.189 587.717 C687.373 586.321 684.872 586.172 682.776 585.249 C680.729 584.347 678.702 583.38 676.773 582.247 C673.042 580.056 669.41 577.697 665.816 575.289 C664.77 574.587 663.757 573.817 662.866 572.926 C661.713 571.772 660.604 570.549 659.711 569.184 C657.736 566.165 656.288 562.82 654.289 559.816 C653.619 558.81 652.342 558.279 651.75 557.224 C649.777 553.702 648.223 549.955 646.674 546.226 C645.135 542.52 643.781 538.737 642.494 534.937 C641.811 532.92 641.248 530.861 640.767 528.786 C640.13 526.044 639.031 523.311 639.141 520.498 C639.32 515.898 640.332 511.332 641.619 506.913 C642.154 505.076 643.178 503.319 644.535 501.971 C645.556 500.957 647.049 500.499 648.441 500.134 C649.447 499.871 650.549 499.893 651.56 500.132 C654.16 500.747 656.671 501.702 659.161 502.668 C659.987 502.989 660.803 503.399 661.473 503.978 C663.37 505.619 664.92 507.635 666.81 509.285 C667.499 509.887 668.519 510.046 669.166 510.692 C669.858 511.385 670.069 512.453 670.715 513.19 C672.454 515.173 674.546 516.827 676.285 518.81 C676.978 519.6 677.291 520.675 677.977 521.472 C679.032 522.699 680.172 523.879 681.472 524.842 C681.755 525.051 682.239 525.043 682.527 524.842 C683.576 524.112 684.566 523.238 685.288 522.184 C686.65 520.196 687.329 517.79 688.712 515.816 C689.685 514.426 691.196 513.491 692.285 512.19 C692.914 511.438 693.14 510.383 693.834 509.692 C694.572 508.958 695.659 508.673 696.472 508.023 C697.329 507.338 697.896 506.309 698.816 505.712 C701.793 503.778 704.796 501.798 708.091 500.476 C712.079 498.877 716.287 497.822 720.506 497.014 C722.161 496.697 723.913 496.778 725.56 497.132 C728.197 497.699 730.808 498.535 733.218 499.747 C734.298 500.29 734.865 501.531 735.81 502.285 C736.533 502.862 737.498 503.1 738.19 503.715 C740.34 505.625 742.549 507.526 744.288 509.816 C745.807 511.815 747.131 514.044 747.862 516.446 C748.358 518.075 748.482 519.968 747.862 521.554 C746.846 524.151 744.301 525.929 743.158 528.472 C742.868 529.117 743.755 529.775 743.852 530.474 C743.994 531.492 744.13 532.565 743.866 533.559 M653.532 496.98 C653.532 496.98 653.532 496.98 653.532 496.98 C652.523 496.663 651.557 495.935 650.503 496.03 C647.782 496.274 644.908 496.605 642.539 497.966 C640.769 498.981 639.588 500.914 638.752 502.775 C637.11 506.429 636.553 510.484 635.217 514.26 C635.117 514.542 634.749 514.959 634.497 514.797 C630.442 512.191 626.549 509.326 622.81 506.285 C620.776 504.631 619.41 502.194 617.222 500.749 C615.447 499.577 613.256 499.19 611.206 498.622 C607.695 497.649 604.142 496.812 600.562 496.13 C599.561 495.94 598.521 495.913 597.507 496.014 C592.894 496.474 588.289 497.043 583.718 497.81 C581.059 498.256 578.386 498.753 575.844 499.65 C573.718 500.399 571.665 501.423 569.816 502.712 C568.336 503.743 566.986 505.032 565.978 506.527 C564.239 509.106 562.769 511.893 561.666 514.8 C560.102 518.92 558.874 523.184 558.014 527.506 C557.685 529.159 557.832 530.902 558.132 532.561 C558.438 534.248 559.172 535.833 559.809 537.425 C560.075 538.088 560.315 538.815 560.834 539.306 C561.57 540.002 562.463 540.614 563.446 540.862 C564.755 541.192 566.215 541.416 567.494 540.986 C571.983 539.476 576.07 536.958 580.445 535.144 C580.779 535.005 581.379 534.837 581.53 535.166 C581.998 536.184 582.075 537.38 581.985 538.497 C581.899 539.546 581.112 540.455 581.015 541.503 C580.83 543.503 580.581 545.6 581.148 547.526 C581.458 548.578 582.589 549.204 583.474 549.851 C583.753 550.056 584.157 549.984 584.503 549.985 C585.523 549.988 586.585 550.168 587.558 549.866 C589.526 549.255 591.357 548.256 593.178 547.292 C594.234 546.732 595.315 546.148 596.166 545.308 C596.862 544.619 597.097 543.57 597.715 542.81 C598.221 542.187 598.708 541.293 599.505 541.199 C599.971 541.145 599.979 542.106 599.86 542.559 C599.502 543.929 598.375 545.046 598.134 546.441 C597.787 548.451 597.802 550.547 598.134 552.559 C598.352 553.876 598.992 555.125 599.75 556.225 C600.466 557.263 601.458 558.104 602.474 558.851 C602.752 559.056 603.157 558.985 603.503 558.985 C604.512 558.985 605.618 559.291 606.526 558.851 C607.678 558.294 608.569 557.243 609.288 556.184 C610.462 554.455 611.389 552.55 612.129 550.597 C613.214 547.732 613.568 544.615 614.744 541.786 C615.049 541.053 615.723 540.406 616.474 540.149 C617.436 539.819 618.569 539.805 619.526 540.149 C620.863 540.629 621.813 541.852 623.069 542.517 C624.796 543.431 626.516 544.53 628.441 544.866 C631.107 545.33 633.879 545.243 636.558 544.866 C637.964 544.668 639.082 543.493 640.464 543.172 C640.785 543.097 641.103 543.48 641.246 543.776 C643.548 548.531 645.288 553.555 647.753 558.228 C648.654 559.936 650.213 561.213 651.289 562.816 C653.624 566.299 655.556 570.048 657.977 573.472 C658.745 574.559 659.768 575.457 660.81 576.285 C663.056 578.069 665.4 579.737 667.814 581.287 C670.06 582.728 672.398 584.029 674.772 585.247 C676.148 585.953 677.815 586.116 679.048 587.049 C679.963 587.741 679.874 589.512 680.946 589.919 C682.096 590.357 683.334 588.988 684.555 589.144 C685.569 589.273 686.397 590.069 687.19 590.715 C688.321 591.636 689.395 592.654 690.285 593.81 C691.583 595.495 692.344 597.565 693.717 599.19 C694.138 599.688 694.858 599.895 695.503 599.985 C696.511 600.125 697.579 600.154 698.554 599.862 C699.535 599.569 700.328 598.837 701.19 598.285 C701.856 597.858 702.571 597.481 703.134 596.926 C703.8 596.269 704.096 595.269 704.834 594.692 C707.812 592.365 711.358 590.789 714.19 588.285 C719.874 583.259 725.705 578.239 730.285 572.19 C735.141 565.776 738.417 558.303 742.246 551.227 C743.106 549.639 743.734 547.931 744.334 546.228 C745.903 541.778 746.955 537.143 748.749 532.778 C749.137 531.833 750.393 531.438 750.799 530.5 C750.954 530.144 750.274 529.898 750.157 529.527 C750.051 529.192 749.988 528.78 750.158 528.473 C750.458 527.929 750.907 527.41 751.472 527.151 C751.975 526.919 752.733 526.72 753.133 527.104 C754.628 528.541 755.412 530.577 756.715 532.19 C757.551 533.225 758.455 534.235 759.527 535.022 C761.054 536.142 762.596 537.46 764.446 537.862 C767.078 538.435 769.868 538.286 772.526 537.851 C773.288 537.727 773.91 536.975 774.216 536.266 C775.03 534.381 774.43 531.852 775.784 530.308 C776.389 529.618 776.945 531.799 777.754 532.232 C779.213 533.012 780.82 533.529 782.439 533.868 C783.457 534.081 784.572 534.194 785.558 533.866 C788.222 532.978 790.75 531.687 793.184 530.288 C793.885 529.885 794.701 529.321 794.851 528.526 C795.291 526.208 795.339 523.758 794.862 521.446 C794.424 519.323 792.941 517.553 792.171 515.527 C792.115 515.381 792.321 515.147 792.476 515.172 C795.196 515.606 797.812 516.978 800.564 516.866 C804.499 516.706 808.39 515.66 812.111 514.37 C814.611 513.504 817.071 512.255 819.024 510.471 C820.76 508.885 821.701 506.598 822.862 504.554 C823.038 504.245 822.985 503.85 822.985 503.494 C822.986 501.476 823.485 499.362 822.866 497.441 C821.547 493.351 819.653 489.405 817.288 485.816 C815.705 483.413 813.528 481.38 811.183 479.711 C807.7 477.232 803.803 475.376 799.965 473.49 C797.893 472.471 795.757 471.476 793.494 471.014 C791.845 470.677 790.05 470.63 788.446 471.138 C786.052 471.896 783.85 473.24 781.816 474.712 C780.059 475.983 778.869 477.912 777.19 479.285 C775.194 480.917 772.774 481.994 770.834 483.692 C770.056 484.373 769.955 485.64 769.165 486.308 C765.57 489.35 761.488 491.773 757.81 494.715 C756.486 495.773 755.492 497.201 754.19 498.285 C753.047 499.237 751.86 500.189 750.503 500.798 C750.218 500.926 749.964 500.102 749.716 500.292 C748.454 501.259 747.8 502.886 746.529 503.842 C746.172 504.11 745.61 503.86 745.198 503.687 C744.346 503.331 743.54 502.85 742.81 502.285 C740.528 500.519 738.477 498.466 736.185 496.712 C735.499 496.188 734.72 495.77 733.908 495.475 C730.5 494.239 727.061 493.071 723.56 492.133 C722.877 491.95 722.127 491.968 721.439 492.133 C717.194 493.148 712.863 493.989 708.828 495.655 C704.268 497.538 700.018 500.124 695.816 502.711 C694.772 503.354 694.145 504.517 693.19 505.285 C692.427 505.899 691.383 506.14 690.692 506.834 C689.958 507.572 689.689 508.673 689.023 509.472 C688.019 510.678 686.639 511.551 685.712 512.816 C684.328 514.703 683.631 517.056 682.141 518.861 C681.891 519.164 681.348 518.713 681.017 518.5 C680.607 518.237 680.27 517.861 679.977 517.472 C679.268 516.532 678.827 515.389 678.023 514.528 C674.218 510.455 670.26 506.522 666.19 502.715 C664.984 501.587 663.684 500.516 662.221 499.749 C660.109 498.64 657.832 497.859 655.559 497.134 M724.028 509.513 C724.028 509.513 724.028 509.513 724.028 509.513 C723.204 509.054 722.484 508.304 721.556 508.137 C719.889 507.836 718.132 507.803 716.474 508.149 C715.862 508.276 715.297 508.867 715.148 509.474 C714.828 510.785 714.888 512.202 715.159 513.525 C715.223 513.839 715.795 514.078 716.05 513.884 C717.039 513.128 717.486 511.812 718.443 511.016 C718.713 510.791 719.149 510.972 719.499 511.016 C719.941 511.071 720.417 511.087 720.802 511.312 C722.038 512.033 723.227 512.855 724.29 513.813 C724.974 514.428 725.79 515.088 725.994 515.985 C726.985 520.351 727.017 524.887 727.805 529.294 C727.856 529.579 728.198 529.762 728.474 529.848 C728.942 529.994 729.734 530.406 729.941 529.961 C731.018 527.651 731.411 525.069 731.87 522.562 C732.057 521.539 732.16 520.439 731.866 519.441 C731.283 517.466 730.417 515.549 729.293 513.823 C728.493 512.594 727.318 511.639 726.182 510.71 M672.98 566.48 C672.98 566.48 672.98 566.48 672.98 566.48 C674.59 568.082 676.057 569.841 677.81 571.285 C679.808 572.931 682.168 574.098 684.19 575.715 C685.513 576.774 686.495 578.216 687.81 579.285 C688.605 579.931 689.449 580.762 690.472 580.823 C691.102 580.86 691.611 580.109 691.851 579.526 C692.111 578.894 692.182 578.073 691.851 577.474 C691.233 576.356 690.206 575.49 689.19 574.715 C686.176 572.415 682.843 570.559 679.81 568.285 C677.501 566.553 675.5 564.433 673.184 562.711 C671.396 561.383 669.559 560.069 667.527 559.158 C667.058 558.947 666.466 559.24 666.02 559.497 C665.646 559.713 665.083 560.085 665.201 560.5 C665.419 561.271 666.175 561.797 666.81 562.285 M1092.47 893.977 C1092.47 893.977 1092.47 893.977 1092.47 893.977 C1092.93 893.829 1093.57 893.932 1093.84 893.534 C1094.15 893.073 1094.23 892.314 1093.9 891.867 C1093.09 890.769 1092.07 889.397 1090.71 889.291 C1089.82 889.222 1089.13 890.601 1089.16 891.5 C1089.2 892.48 1090.08 893.309 1090.87 893.897 M897.472 643.005 C897.472 643.005 897.472 643.005 897.472 643.005 C897.973 643.168 898.528 643.216 898.977 643.493 C899.35 643.723 899.758 644.046 899.851 644.474 C900.07 645.477 900.216 646.59 899.862 647.554 C898.997 649.911 897.655 652.078 896.288 654.184 C895.757 655.003 895.109 655.857 894.218 656.253 C891.433 657.492 888.455 658.269 885.493 658.985 C884.838 659.143 884.076 659.154 883.474 658.851 C882.664 658.444 882.092 657.667 881.503 656.979 C881.341 656.79 881.22 656.518 881.265 656.274 C881.697 653.927 882.022 651.521 882.916 649.308 C883.958 646.729 885.005 643.962 887.015 642.039 C888.409 640.706 890.565 639.987 892.487 640.153 C894.088 640.291 895.083 642.057 896.477 642.855 M900.278 656.197 C900.278 656.197 900.278 656.197 900.278 656.197 C901.806 652.982 903.568 649.869 904.862 646.554 C905.117 645.899 905.103 645.106 904.862 644.446 C904.467 643.367 903.833 642.346 903.024 641.529 C901.908 640.402 900.531 639.557 899.187 638.714 C898.044 637.998 896.868 637.291 895.588 636.867 C893.272 636.098 890.872 634.728 888.47 635.158 C886.749 635.467 885.766 637.422 884.711 638.816 C882.819 641.319 881.23 644.044 879.685 646.774 C879.032 647.929 878.306 649.125 878.134 650.441 C877.785 653.113 877.888 655.844 878.148 658.526 C878.208 659.142 878.637 659.696 879.074 660.134 C880.1 661.159 881.148 662.262 882.473 662.851 C883.394 663.26 884.505 663.182 885.493 662.986 C888.762 662.338 891.971 661.389 895.134 660.343 C895.984 660.061 896.775 659.584 897.472 659.022 M568.279 511.198 C568.279 511.198 568.279 511.198 568.279 511.198 C568.845 510.308 569.304 509.341 569.976 508.529 C570.828 507.499 571.68 506.398 572.823 505.707 C574.819 504.5 577.018 503.62 579.244 502.923 C581.912 502.087 584.65 501.349 587.438 501.13 C592.773 500.71 598.17 500.465 603.494 501.014 C606.905 501.366 610.141 502.728 613.397 503.806 C614.152 504.056 614.866 504.466 615.473 504.979 C619.018 507.971 622.19 511.396 625.816 514.289 C627.118 515.327 628.789 515.801 630.184 516.711 C631.62 517.649 633.582 518.254 634.287 519.817 C636.177 524.009 636.365 528.78 637.621 533.204 C638.225 535.329 639.222 537.326 639.86 539.441 C639.965 539.788 640.075 540.258 639.834 540.53 C639.522 540.883 638.967 540.969 638.496 540.984 C635.479 541.082 632.41 541.41 629.441 540.866 C627.415 540.494 625.641 539.26 623.822 538.292 C622.67 537.679 621.818 536.463 620.554 536.138 C618.905 535.714 617.114 535.798 615.446 536.138 C614.442 536.342 613.62 537.089 612.81 537.715 C612.048 538.305 611.119 538.862 610.766 539.759 C609.522 542.913 609.204 546.368 608.131 549.584 C607.704 550.863 607.058 552.078 606.287 553.185 C605.829 553.843 605.24 554.481 604.503 554.797 C604.228 554.915 603.888 554.54 603.782 554.259 C603.083 552.391 601.799 550.467 602.147 548.503 C603.537 540.656 606.882 533.278 608.867 525.561 C609.124 524.563 609.434 523.315 608.843 522.472 C608.385 521.82 607.199 521.818 606.474 522.149 C605.309 522.681 604.398 523.736 603.711 524.816 C600.978 529.119 598.909 533.813 596.288 538.184 C595.435 539.606 594.659 541.206 593.307 542.166 C590.97 543.826 588.36 545.389 585.527 545.829 C584.729 545.953 585.034 544.24 585.129 543.438 C585.545 539.955 585.704 536.333 587.048 533.094 C588.155 530.426 590.635 528.561 592.285 526.19 C594.242 523.377 596.394 520.65 597.862 517.554 C598.302 516.626 598.433 515.313 597.843 514.472 C597.385 513.82 596.208 513.839 595.474 514.149 C594.415 514.596 593.694 515.629 592.977 516.528 C589.936 520.34 588.09 525.276 584.225 528.25 C579.032 532.245 572.511 534.128 566.555 536.856 C566.226 537.007 565.769 537.046 565.471 536.842 C564.569 536.224 563.38 535.595 563.148 534.526 C562.511 531.588 562.592 528.484 563.014 525.506 C563.441 522.494 564.614 519.628 565.665 516.772 M539.797 693.692 C539.797 693.692 539.797 693.692 539.797 693.692 C540.948 692.869 542.349 692.315 543.25 691.225 C544.099 690.196 544.958 688.891 544.86 687.561 C544.637 684.53 543.36 681.661 542.334 678.801 C541.83 677.395 541.127 676.051 540.288 674.816 C539.741 674.011 539.044 673.276 538.225 672.75 C537.101 672.029 535.858 671.444 534.559 671.134 C533.548 670.893 532.452 670.893 531.441 671.134 C530.142 671.444 528.904 672.038 527.775 672.75 C527.107 673.172 526.311 673.701 526.149 674.474 C525.732 676.457 525.537 678.618 526.138 680.554 C527.103 683.664 529.103 686.355 530.713 689.186 C531.329 690.269 531.844 691.493 532.809 692.282 C533.832 693.118 535.147 693.604 536.441 693.866 M536.04 689.523 C536.04 689.523 536.04 689.523 536.04 689.523 C534.932 688.412 533.704 687.409 532.715 686.19 C532.07 685.394 531.415 684.525 531.177 683.529 C531.084 683.139 531.718 682.909 531.843 682.529 C531.954 682.185 531.999 681.777 531.856 681.445 C531.415 680.415 530.422 679.638 530.138 678.554 C529.934 677.774 529.735 676.486 530.472 676.157 C532.01 675.471 533.996 675.441 535.524 676.149 C536.886 676.78 537.531 678.421 538.228 679.751 C538.997 681.217 539.598 682.806 539.867 684.439 C540.144 686.113 540.508 687.968 539.843 689.528 C539.531 690.258 538.298 689.985 537.504 689.984 M584.578 683.854 C584.578 683.854 584.578 683.854 584.578 683.854 C583.878 683.853 583.122 684.127 582.478 683.853 C581.749 683.542 581.114 682.925 580.749 682.221 C579.308 679.443 577.783 676.617 577.138 673.554 C576.516 670.602 576.919 667.519 577.016 664.504 C577.031 664.033 577.004 663.229 577.471 663.165 C578.4 663.037 579.465 663.416 580.133 664.074 C583.15 667.043 585.668 670.483 588.285 673.81 C588.918 674.615 589.63 675.449 589.862 676.446 C590.171 677.77 590.221 679.217 589.851 680.526 C589.637 681.286 588.893 681.828 588.225 682.249 M582.541 659.818 C582.541 659.818 582.541 659.818 582.541 659.818 C582.035 659.714 581.473 659.76 581.024 659.506 C580.645 659.292 580.047 658.902 580.199 658.495 C580.359 658.067 581.102 657.993 581.527 658.158 C582.104 658.383 582.48 658.98 582.803 659.508 M839.794 632.671 C839.794 632.671 839.794 632.671 839.794 632.671 C837.687 632.728 835.545 633.226 833.472 632.843 C833 632.755 833.022 631.906 833.139 631.441 C833.466 630.146 833.927 628.825 834.75 627.775 C835.922 626.28 837.851 625.489 838.995 623.973 C839.971 622.681 840.081 620.889 840.969 619.536 C841.602 618.572 842.414 617.604 843.474 617.149 C844.409 616.747 845.652 616.628 846.526 617.149 C848.283 618.195 850.498 619.509 850.822 621.528 C851.122 623.398 849.135 624.94 848.022 626.472 C847.241 627.549 846.253 628.484 845.19 629.285 "/></g>
</svg>
